<svg width="130" height="21" viewBox="0 0 130 21" fill="none" xmlns="http://www.w3.org/2000/svg">
<path d="M15.8481 13.9951H5.60386C6.01986 15.4248 7.24206 16.2568 9.06236 16.2568C10.4403 16.2568 11.3505 15.8672 12.3124 15.0351L14.9125 17.7392C13.5604 19.247 11.5844 20.0273 8.90616 20.0273C3.88806 20.0273 0.638062 16.9326 0.638062 12.7207C0.638062 8.4824 3.93986 5.4668 8.38606 5.4668C12.5463 5.4668 15.9261 8.1182 15.9261 12.7725C15.9262 13.1367 15.8744 13.6045 15.8481 13.9951ZM5.52626 11.3945H11.2983C11.0385 9.9131 9.94616 8.9765 8.41256 8.9765C6.87826 8.9766 5.81186 9.9131 5.52626 11.3945Z" fill="#FADE4D"/>
<path d="M33.1907 0.5V19.793H28.4846V18.3887C27.5491 19.5069 26.1701 20.0274 24.3508 20.0274C20.5022 20.0274 17.4084 17.2188 17.4084 12.7208C17.4084 8.2491 20.5022 5.4669 24.3508 5.4669C25.9885 5.4669 27.3147 5.9347 28.2502 6.923V0.5H33.1907ZM28.3284 12.7207C28.3284 10.5889 27.055 9.3926 25.3909 9.3926C23.7005 9.3926 22.4261 10.5889 22.4261 12.7207C22.4261 14.8789 23.7005 16.1006 25.3909 16.1006C27.055 16.1006 28.3284 14.8789 28.3284 12.7207Z" fill="#FADE4D"/>
<path d="M51.1819 5.7002V19.793H46.4758V18.2852C45.4104 19.4551 43.9016 20.0274 42.2903 20.0274C38.8323 20.0274 36.3098 18.0508 36.3098 13.5792V5.7002H41.2502V12.7725C41.2502 14.9571 42.1076 15.8145 43.59 15.8145C45.0461 15.8145 46.2423 14.8526 46.2423 12.4864V5.7002H51.1819Z" fill="#FADE4D"/>
<path d="M66.2231 6.63671C67.2895 7.22651 68.1254 8.05861 68.7319 9.13281C69.3383 10.208 69.6421 11.4473 69.6421 12.8506C69.6421 14.2549 69.3384 15.499 68.7319 16.582C68.1254 17.665 67.2895 18.5019 66.2231 19.0908C65.1567 19.6806 63.9477 19.9746 62.5961 19.9746C61.643 19.9746 60.7719 19.8096 59.9828 19.4814C59.1937 19.1523 58.5307 18.6582 57.9935 17.999V19.7929H54.8997V0.501007H58.1497V7.59871C58.7044 6.99231 59.3587 6.53331 60.1126 6.22081C60.8665 5.90931 61.6946 5.75301 62.596 5.75301C63.9477 5.75291 65.1567 6.04791 66.2231 6.63671ZM65.183 15.9971C65.9545 15.2002 66.3402 14.1514 66.3402 12.8506C66.3402 11.5508 65.9545 10.502 65.183 9.70511C64.4115 8.90821 63.4281 8.50881 62.2319 8.50881C61.4516 8.50881 60.7505 8.68651 60.1264 9.04201C59.5023 9.39751 59.0082 9.90431 58.644 10.5625C58.2797 11.2217 58.0981 11.9844 58.0981 12.8506C58.0981 13.7178 58.2797 14.4805 58.644 15.1387C59.0083 15.7979 59.5024 16.3047 60.1264 16.6602C60.7504 17.0157 61.4516 17.1934 62.2319 17.1934C63.4281 17.1934 64.4115 16.7949 65.183 15.9971Z" fill="#16DDBA"/>
<path d="M75.1791 19.0654C74.0521 18.458 73.1723 17.6133 72.5395 16.5302C71.9067 15.4471 71.5913 14.2206 71.5913 12.8505C71.5913 11.4814 71.9067 10.2597 72.5395 9.18451C73.1723 8.11031 74.0522 7.26951 75.1791 6.66301C76.3051 6.05661 77.5707 5.75281 78.975 5.75281C80.3959 5.75281 81.6703 6.05651 82.7973 6.66301C83.9233 7.26941 84.8032 8.11031 85.436 9.18451C86.0688 10.2597 86.3852 11.4814 86.3852 12.8505C86.3852 14.2206 86.0688 15.4472 85.436 16.5302C84.8032 17.6132 83.9233 18.4579 82.7973 19.0654C81.6703 19.6718 80.3959 19.9746 78.975 19.9746C77.5707 19.9746 76.3051 19.6719 75.1791 19.0654ZM81.9389 15.9971C82.7192 15.2002 83.1088 14.1514 83.1088 12.8506C83.1088 11.5508 82.7192 10.502 81.9389 9.70511C81.1586 8.90821 80.1713 8.50881 78.975 8.50881C77.7787 8.50881 76.7953 8.90821 76.0238 9.70511C75.2523 10.502 74.8666 11.5508 74.8666 12.8506C74.8666 14.1514 75.2523 15.2002 76.0238 15.9971C76.7953 16.795 77.7787 17.1934 78.975 17.1934C80.1713 17.1934 81.1586 16.7949 81.9389 15.9971Z" fill="#16DDBA"/>
<path d="M91.9485 19.0654C90.8215 18.458 89.9417 17.6133 89.3089 16.5302C88.6761 15.4471 88.3607 14.2206 88.3607 12.8505C88.3607 11.4814 88.6761 10.2597 89.3089 9.18451C89.9417 8.11031 90.8216 7.26951 91.9485 6.66301C93.0745 6.05661 94.3401 5.75281 95.7444 5.75281C97.1653 5.75281 98.4397 6.05651 99.5667 6.66301C100.693 7.26941 101.573 8.11031 102.205 9.18451C102.838 10.2597 103.155 11.4814 103.155 12.8505C103.155 14.2206 102.838 15.4472 102.205 16.5302C101.573 17.6132 100.693 18.4579 99.5667 19.0654C98.4397 19.6718 97.1653 19.9746 95.7444 19.9746C94.3401 19.9746 93.0745 19.6719 91.9485 19.0654ZM98.7083 15.9971C99.4886 15.2002 99.8782 14.1514 99.8782 12.8506C99.8782 11.5508 99.4886 10.502 98.7083 9.70511C97.928 8.90821 96.9407 8.50881 95.7444 8.50881C94.5481 8.50881 93.5647 8.90821 92.7932 9.70511C92.0217 10.502 91.636 11.5508 91.636 12.8506C91.636 14.1514 92.0217 15.2002 92.7932 15.9971C93.5647 16.795 94.5481 17.1934 95.7444 17.1934C96.9407 17.1934 97.928 16.7949 98.7083 15.9971Z" fill="#16DDBA"/>
<path d="M127.959 7.27441C128.982 8.28811 129.493 9.80861 129.493 11.8369V19.793H126.243V12.253C126.243 11.0401 125.974 10.1251 125.437 9.50981C124.9 8.89451 124.128 8.58691 123.123 8.58691C122.031 8.58691 121.156 8.94731 120.496 9.66601C119.838 10.3857 119.509 11.4121 119.509 12.7471V19.793H116.259V12.253C116.259 11.0401 115.99 10.1251 115.452 9.50981C114.915 8.89451 114.144 8.58691 113.139 8.58691C112.03 8.58691 111.15 8.94241 110.5 9.65331C109.85 10.3642 109.525 11.3945 109.525 12.7471V19.793H106.275V5.90921H109.368V7.67681C109.889 7.05281 110.539 6.57621 111.319 6.24711C112.099 5.91801 112.965 5.75301 113.919 5.75301C114.959 5.75301 115.882 5.94831 116.688 6.33801C117.494 6.72771 118.131 7.30481 118.599 8.06751C119.171 7.33901 119.908 6.77161 120.809 6.36441C121.71 5.95721 122.707 5.75311 123.799 5.75311C125.549 5.75291 126.936 6.25981 127.959 7.27441Z" fill="#16DDBA"/>
</svg>
