<?xml version="1.0" standalone="no"?>
<!DOCTYPE svg PUBLIC "-//W3C//DTD SVG 20010904//EN"
 "http://www.w3.org/TR/2001/REC-SVG-20010904/DTD/svg10.dtd">
<svg version="1.0" xmlns="http://www.w3.org/2000/svg"
 width="120.000000pt" height="120.000000pt" viewBox="0 0 120.000000 120.000000"
 preserveAspectRatio="xMidYMid meet">
<metadata>
Created by potrace 1.11, written by Peter Selinger 2001-2013
</metadata>
<g transform="translate(0.000000,120.000000) scale(0.100000,-0.100000)"
fill="#000000" stroke="none">
<path d="M659 968 c-1 -13 -1 -45 0 -71 1 -46 0 -48 -21 -40 -45 16 -133 8
-165 -15 -78 -55 -90 -187 -24 -266 38 -46 132 -61 190 -31 23 12 31 12 29 3
-4 -16 92 -24 101 -9 5 8 7 414 2 444 0 4 -26 7 -56 7 -50 0 -55 -2 -56 -22z
m-14 -221 c47 -68 -34 -162 -93 -107 -12 11 -23 27 -23 35 -1 8 -2 21 -3 28
-9 62 83 96 119 44z"/>
<path d="M124 860 c-36 -11 -82 -54 -96 -90 -48 -125 37 -241 175 -241 56 0
102 13 130 38 17 16 16 18 -14 49 -29 30 -34 32 -53 19 -11 -8 -34 -15 -51
-15 -31 0 -75 24 -75 41 0 5 50 9 115 9 l115 0 0 44 c0 48 -27 96 -72 129 -32
24 -124 32 -174 17z m116 -93 c34 -29 24 -38 -40 -36 -64 2 -77 16 -40 42 25
17 56 15 80 -6z"/>
<path d="M850 856 c-1 -22 -2 -162 -1 -204 1 -33 8 -50 34 -78 28 -31 42 -37
84 -41 35 -4 61 0 84 11 39 19 40 19 36 4 -1 -9 15 -14 50 -16 43 -2 52 0 56
15 4 15 2 295 -2 314 0 3 -26 5 -56 6 -49 0 -55 -2 -56 -21 0 -12 -1 -59 -2
-104 -2 -90 -15 -112 -63 -112 -39 0 -48 25 -49 133 l0 101 -57 1 c-36 1 -58
-3 -58 -9z"/>
<path d="M19 521 c-1 -3 -2 -72 -3 -153 -1 -144 -1 -147 21 -151 12 -2 24 1
26 6 2 8 13 7 34 -2 74 -30 153 28 153 113 0 54 -52 106 -107 106 -21 0 -45
-5 -53 -10 -12 -8 -16 -1 -20 43 -4 45 -8 52 -27 53 -13 1 -24 -1 -24 -5z
m168 -165 c14 -31 1 -69 -30 -86 -24 -13 -30 -13 -54 0 -47 26 -44 101 4 118
34 11 67 -2 80 -32z"/>
<path d="M328 423 c-63 -39 -65 -148 -4 -188 33 -22 94 -26 128 -9 79 41 80
167 2 202 -36 17 -94 14 -126 -5z m122 -66 c21 -38 4 -79 -38 -91 -29 -8 -36
-6 -59 17 -23 23 -25 30 -17 59 18 60 83 69 114 15z"/>
<path d="M582 412 c-76 -71 -37 -186 66 -196 115 -12 177 121 92 197 -44 39
-115 39 -158 -1z m137 -62 c18 -53 -26 -102 -76 -84 -53 18 -57 104 -6 122 37
12 69 -3 82 -38z"/>
<path d="M829 408 c-1 -72 0 -181 3 -183 2 -2 12 -5 23 -7 18 -3 20 4 25 75 5
81 14 97 55 97 38 0 47 -15 49 -86 2 -80 8 -94 36 -87 17 4 19 13 18 64 -2 72
15 109 52 109 41 0 50 -17 50 -97 0 -66 2 -73 20 -73 11 0 23 -1 27 -2 14 -5
9 152 -5 182 -20 41 -82 53 -135 25 -25 -13 -30 -13 -44 0 -17 17 -75 20 -103
5 -13 -7 -21 -7 -25 0 -3 5 -15 10 -26 10 -15 0 -19 -7 -20 -32z"/>
</g>
</svg>
